<mxfile host="www.draw.io" modified="2019-11-02T19:32:24.931Z" agent="Mozilla/5.0 (Windows NT 10.0; Win64; x64) AppleWebKit/537.36 (KHTML, like Gecko) Chrome/78.0.3904.70 Safari/537.36" etag="lg-w-kQQfaLUqTB0q-Oj" version="12.1.9" type="github" pages="1">
  <diagram id="Ys3HZVprmhT14fWjxTii" name="Page-1">
    <mxGraphModel dx="1422" dy="794" grid="0" gridSize="10" guides="1" tooltips="1" connect="1" arrows="1" fold="1" page="1" pageScale="1" pageWidth="850" pageHeight="1100" math="0" shadow="0">
      <root>
        <mxCell id="0"/>
        <mxCell id="1" parent="0"/>
        <mxCell id="aJFEXek-DKKWGumUrWXr-6" value="class: Sequence_Set" style="swimlane;fontStyle=1;align=center;verticalAlign=top;childLayout=stackLayout;horizontal=1;startSize=26;horizontalStack=0;resizeParent=1;resizeParentMax=0;resizeLast=0;collapsible=1;marginBottom=0;" parent="1" vertex="1">
          <mxGeometry x="70" y="390" width="344" height="421" as="geometry"/>
        </mxCell>
        <mxCell id="aJFEXek-DKKWGumUrWXr-7" value="LinkedList: Block&#xa;&#xa;private methods:&#xa;offset(record number, field)&#xa;switch(field)&#xa;Read_Block_from_data( k1offset, k2offset, k3offset, k4offset )&#xa;Add_record();&#xa;delete_record();&#xa;update_record();&#xa;display_record();&#xa;compact_record();&#xa;" style="text;strokeColor=none;fillColor=none;align=left;verticalAlign=top;spacingLeft=4;spacingRight=4;overflow=hidden;rotatable=0;points=[[0,0.5],[1,0.5]];portConstraint=eastwest;" parent="aJFEXek-DKKWGumUrWXr-6" vertex="1">
          <mxGeometry y="26" width="344" height="161" as="geometry"/>
        </mxCell>
        <mxCell id="aJFEXek-DKKWGumUrWXr-8" value="" style="line;strokeWidth=1;fillColor=none;align=left;verticalAlign=middle;spacingTop=-1;spacingLeft=3;spacingRight=3;rotatable=0;labelPosition=right;points=[];portConstraint=eastwest;" parent="aJFEXek-DKKWGumUrWXr-6" vertex="1">
          <mxGeometry y="187" width="344" height="8" as="geometry"/>
        </mxCell>
        <mxCell id="aJFEXek-DKKWGumUrWXr-9" value="public methods:&#xa;Sequence_Set()&#xa;~Sequence_Set()&#xa;create()&#xa;open_sequence_set()&#xa;close()&#xa;is_empty()&#xa;search()&#xa;populate()&#xa;insert()&#xa;delete()&#xa;update()&#xa;display_record()&#xa;display_SS()&#xa;validate()" style="text;strokeColor=none;fillColor=none;align=left;verticalAlign=top;spacingLeft=4;spacingRight=4;overflow=hidden;rotatable=0;points=[[0,0.5],[1,0.5]];portConstraint=eastwest;" parent="aJFEXek-DKKWGumUrWXr-6" vertex="1">
          <mxGeometry y="195" width="344" height="226" as="geometry"/>
        </mxCell>
        <mxCell id="aJFEXek-DKKWGumUrWXr-12" value="struct: Record" style="swimlane;fontStyle=1;align=center;verticalAlign=top;childLayout=stackLayout;horizontal=1;startSize=26;horizontalStack=0;resizeParent=1;resizeParentMax=0;resizeLast=0;collapsible=1;marginBottom=0;" parent="1" vertex="1">
          <mxGeometry x="434" y="390" width="160" height="220" as="geometry"/>
        </mxCell>
        <mxCell id="aJFEXek-DKKWGumUrWXr-13" value="zip_code: stringÂ &#xa;place_name: string&#xa;state: string&#xa;county: string&#xa;latitude: float&#xa;longitude: float&#xa;" style="text;strokeColor=none;fillColor=none;align=left;verticalAlign=top;spacingLeft=4;spacingRight=4;overflow=hidden;rotatable=0;points=[[0,0.5],[1,0.5]];portConstraint=eastwest;" parent="aJFEXek-DKKWGumUrWXr-12" vertex="1">
          <mxGeometry y="26" width="160" height="94" as="geometry"/>
        </mxCell>
        <mxCell id="aJFEXek-DKKWGumUrWXr-14" value="" style="line;strokeWidth=1;fillColor=none;align=left;verticalAlign=middle;spacingTop=-1;spacingLeft=3;spacingRight=3;rotatable=0;labelPosition=right;points=[];portConstraint=eastwest;" parent="aJFEXek-DKKWGumUrWXr-12" vertex="1">
          <mxGeometry y="120" width="160" height="8" as="geometry"/>
        </mxCell>
        <mxCell id="aJFEXek-DKKWGumUrWXr-15" value="get_zip_code()&#xa;get_place_name()&#xa;get_state()&#xa;get_county()&#xa;get_latitude()&#xa;get_longitude()" style="text;strokeColor=none;fillColor=none;align=left;verticalAlign=top;spacingLeft=4;spacingRight=4;overflow=hidden;rotatable=0;points=[[0,0.5],[1,0.5]];portConstraint=eastwest;" parent="aJFEXek-DKKWGumUrWXr-12" vertex="1">
          <mxGeometry y="128" width="160" height="92" as="geometry"/>
        </mxCell>
        <mxCell id="aJFEXek-DKKWGumUrWXr-16" value="class: DoubleLinkedList" style="swimlane;fontStyle=1;align=center;verticalAlign=top;childLayout=stackLayout;horizontal=1;startSize=26;horizontalStack=0;resizeParent=1;resizeParentMax=0;resizeLast=0;collapsible=1;marginBottom=0;" parent="1" vertex="1">
          <mxGeometry x="619" y="577" width="180" height="240" as="geometry"/>
        </mxCell>
        <mxCell id="aJFEXek-DKKWGumUrWXr-17" value="headerPtr: Pointer to First Node&#xa;itemCount: int&#xa;getNodeAt: prt to Node&#xa;" style="text;strokeColor=none;fillColor=none;align=left;verticalAlign=top;spacingLeft=4;spacingRight=4;overflow=hidden;rotatable=0;points=[[0,0.5],[1,0.5]];portConstraint=eastwest;" parent="aJFEXek-DKKWGumUrWXr-16" vertex="1">
          <mxGeometry y="26" width="180" height="54" as="geometry"/>
        </mxCell>
        <mxCell id="aJFEXek-DKKWGumUrWXr-18" value="" style="line;strokeWidth=1;fillColor=none;align=left;verticalAlign=middle;spacingTop=-1;spacingLeft=3;spacingRight=3;rotatable=0;labelPosition=right;points=[];portConstraint=eastwest;" parent="aJFEXek-DKKWGumUrWXr-16" vertex="1">
          <mxGeometry y="80" width="180" height="18" as="geometry"/>
        </mxCell>
        <mxCell id="aJFEXek-DKKWGumUrWXr-19" value="LinkedList()&#xa;~LinkedList()&#xa;isEmpty()&#xa;getLength()&#xa;insert()&#xa;remove()&#xa;clear()&#xa;getEntry()&#xa;replace()" style="text;strokeColor=none;fillColor=none;align=left;verticalAlign=top;spacingLeft=4;spacingRight=4;overflow=hidden;rotatable=0;points=[[0,0.5],[1,0.5]];portConstraint=eastwest;" parent="aJFEXek-DKKWGumUrWXr-16" vertex="1">
          <mxGeometry y="98" width="180" height="142" as="geometry"/>
        </mxCell>
        <mxCell id="aJFEXek-DKKWGumUrWXr-24" value="Class: DoubleNode" style="swimlane;fontStyle=1;align=center;verticalAlign=top;childLayout=stackLayout;horizontal=1;startSize=26;horizontalStack=0;resizeParent=1;resizeParentMax=0;resizeLast=0;collapsible=1;marginBottom=0;" parent="1" vertex="1">
          <mxGeometry x="434" y="619" width="160" height="198" as="geometry"/>
        </mxCell>
        <mxCell id="aJFEXek-DKKWGumUrWXr-25" value="item: ItemType&#xa;prev: Pointer to Prev Node&#xa;next: Pointer to Next Node&#xa;" style="text;strokeColor=none;fillColor=none;align=left;verticalAlign=top;spacingLeft=4;spacingRight=4;overflow=hidden;rotatable=0;points=[[0,0.5],[1,0.5]];portConstraint=eastwest;" parent="aJFEXek-DKKWGumUrWXr-24" vertex="1">
          <mxGeometry y="26" width="160" height="54" as="geometry"/>
        </mxCell>
        <mxCell id="aJFEXek-DKKWGumUrWXr-26" value="" style="line;strokeWidth=1;fillColor=none;align=left;verticalAlign=middle;spacingTop=-1;spacingLeft=3;spacingRight=3;rotatable=0;labelPosition=right;points=[];portConstraint=eastwest;" parent="aJFEXek-DKKWGumUrWXr-24" vertex="1">
          <mxGeometry y="80" width="160" height="8" as="geometry"/>
        </mxCell>
        <mxCell id="aJFEXek-DKKWGumUrWXr-27" value="Node()&#xa;setItem()&#xa;setNext()&#xa;setPrev()&#xa;getItem()&#xa;getNext()&#xa;getPrev()" style="text;strokeColor=none;fillColor=none;align=left;verticalAlign=top;spacingLeft=4;spacingRight=4;overflow=hidden;rotatable=0;points=[[0,0.5],[1,0.5]];portConstraint=eastwest;" parent="aJFEXek-DKKWGumUrWXr-24" vertex="1">
          <mxGeometry y="88" width="160" height="110" as="geometry"/>
        </mxCell>
        <mxCell id="aJFEXek-DKKWGumUrWXr-29" value="array: Block" style="swimlane;fontStyle=1;align=center;verticalAlign=top;childLayout=stackLayout;horizontal=1;startSize=26;horizontalStack=0;resizeParent=1;resizeParentMax=0;resizeLast=0;collapsible=1;marginBottom=0;" parent="1" vertex="1">
          <mxGeometry x="609" y="490" width="190" height="50" as="geometry"/>
        </mxCell>
        <mxCell id="aJFEXek-DKKWGumUrWXr-30" value="Record Block[RecordsPerBlock]" style="text;strokeColor=none;fillColor=none;align=left;verticalAlign=top;spacingLeft=4;spacingRight=4;overflow=hidden;rotatable=0;points=[[0,0.5],[1,0.5]];portConstraint=eastwest;" parent="aJFEXek-DKKWGumUrWXr-29" vertex="1">
          <mxGeometry y="26" width="190" height="24" as="geometry"/>
        </mxCell>
      </root>
    </mxGraphModel>
  </diagram>
</mxfile>
